<svg preserveAspectRatio="none" width="100%" height="100%" overflow="visible" style="display: block;" viewBox="0 0 113.741 36.5638" fill="none" xmlns="http://www.w3.org/2000/svg">
<g id="Group">
<path id="Vector" d="M22.5706 8.80024H27.8432V35.7272H22.5706V8.80024Z" fill="var(--fill-0, white)"/>
<path id="Vector_2" d="M53.1888 26.31C52.9087 27.8581 52.2539 29.145 51.2281 30.1707C49.8882 31.5107 48.0865 32.1806 45.8268 32.1806C43.393 32.1806 41.4437 31.2495 39.9827 29.3872C38.5217 27.525 37.7912 25.0458 37.7912 21.9496C37.7912 19.0275 38.5217 16.6959 39.9827 14.9548C41.4437 13.2137 43.393 12.3469 45.8268 12.3469C48.0865 12.3469 49.8958 12.9903 51.2508 14.2773C52.3258 15.2992 52.9844 16.6089 53.2304 18.2175H58.5409C58.2986 16.4612 57.7422 14.8753 56.8603 13.4673C55.7664 11.711 54.26 10.3559 52.3447 9.39453C50.4295 8.43691 48.2569 7.95999 45.8231 7.95999C43.1773 7.95999 40.8457 8.53533 38.8283 9.6822C36.8108 10.8291 35.2362 12.4756 34.1045 14.6141C32.9728 16.7527 32.4088 19.2319 32.4088 22.0518C32.4088 25.0458 32.9841 27.6272 34.131 29.7998C35.2779 31.9762 36.8638 33.6454 38.8812 34.8112C40.8987 35.977 43.2114 36.5599 45.8231 36.5599C48.2569 36.5599 50.4333 36.0906 52.3447 35.1519C54.2562 34.2132 55.7702 32.8544 56.883 31.0792C57.7611 29.6825 58.3138 28.089 58.5409 26.3024H53.1812L53.1888 26.31Z" fill="var(--fill-0, white)"/>
<path id="Vector_3" d="M17.328 12.4037V8.80406H9.86388V3.05456H8.00541L5.43157 7.39602C4.89031 8.30444 4.04623 8.99332 3.04319 9.33397L2.71596e-06 10.3673V12.4074H4.59129V28.793C4.59129 30.7764 4.88652 32.2904 5.47699 33.3351C6.06746 34.3797 6.99859 35.0838 8.27037 35.4471C9.54215 35.8143 11.3249 35.996 13.6187 35.996C14.7315 35.996 15.9654 35.943 17.3242 35.8408V31.4577C15.9692 31.5636 14.8034 31.6129 13.8268 31.6129C12.3317 31.6129 11.2946 31.3857 10.7231 30.9353C10.1478 30.4849 9.86009 29.5613 9.86009 28.1684V12.4074H17.3242L17.328 12.4037Z" fill="var(--fill-0, white)"/>
<path id="Vector_4" d="M81.7283 29.728C80.4414 27.5364 79.7979 25.0156 79.7979 22.1616C79.7979 19.3077 80.4414 16.8663 81.7283 14.724C83.0152 12.5854 84.7563 10.9238 86.9479 9.73906C89.1394 8.55434 91.5051 7.96387 94.0449 7.96387C96.5847 7.96387 98.9503 8.55434 101.142 9.73906C103.333 10.9238 105.075 12.5816 106.361 14.724C107.648 16.8626 108.292 19.3418 108.292 22.1616C108.292 24.9815 107.648 27.5364 106.361 29.728C105.075 31.9195 103.345 33.6077 101.168 34.7886C98.9957 35.9733 96.6187 36.5638 94.0449 36.5638C91.471 36.5638 89.094 35.9733 86.9214 34.7886C84.7488 33.6039 83.0152 31.9195 81.7283 29.728ZM102.966 22.1616C102.966 19.0995 102.156 16.6998 100.54 14.9587C98.9238 13.2175 96.755 12.3508 94.0449 12.3508C91.3348 12.3508 89.2151 13.2213 87.5989 14.9587C85.9827 16.6998 85.1727 19.0995 85.1727 22.1616C85.1727 25.2238 85.9827 27.7446 87.5989 29.5198C89.2151 31.295 91.3651 32.1807 94.0449 32.1807C96.7247 32.1807 98.9238 31.295 100.54 29.5198C102.156 27.7446 102.966 25.2919 102.966 22.1616Z" fill="var(--fill-0, white)"/>
<path id="Vector_5" d="M25.2072 6.10152C26.8921 6.10152 28.258 4.73565 28.258 3.05076C28.258 1.36587 26.8921 0 25.2072 0C23.5223 0 22.1565 1.36587 22.1565 3.05076C22.1565 4.73565 23.5223 6.10152 25.2072 6.10152Z" fill="var(--fill-0, white)"/>
<g id="Group_2">
<path id="Vector_6" d="M111.711 10.8179C111.636 10.7498 111.515 10.7157 111.344 10.7081V10.6854C111.518 10.6741 111.662 10.6135 111.768 10.5075C111.874 10.3977 111.931 10.2615 111.931 10.0987C111.931 9.91704 111.863 9.77321 111.73 9.66723C111.594 9.56125 111.409 9.51204 111.174 9.51204H110.05V11.8474H110.485V10.9731H111.045C111.147 10.9731 111.223 10.9806 111.276 10.9996C111.329 11.0147 111.371 11.045 111.397 11.0904C111.424 11.1358 111.446 11.2002 111.458 11.2872L111.552 11.8512H111.991L111.863 11.1585C111.836 10.9996 111.783 10.886 111.708 10.8179H111.711ZM111.072 10.6513H110.485V9.86784H111.072C111.204 9.86784 111.31 9.9019 111.386 9.97003C111.465 10.0382 111.503 10.129 111.503 10.2426C111.503 10.3637 111.465 10.4621 111.382 10.5378C111.303 10.6135 111.197 10.6476 111.068 10.6476L111.072 10.6513Z" fill="var(--fill-0, white)"/>
<path id="Vector_7" d="M111.019 7.9564C109.517 7.9564 108.298 9.17898 108.298 10.6779C108.298 12.1767 109.52 13.3993 111.019 13.3993C112.518 13.3993 113.741 12.1767 113.741 10.6779C113.741 9.17898 112.518 7.9564 111.019 7.9564ZM111.019 12.9338C109.774 12.9338 108.763 11.9231 108.763 10.6779C108.763 9.43258 109.774 8.42197 111.019 8.42197C112.265 8.42197 113.275 9.43258 113.275 10.6779C113.275 11.9231 112.265 12.9338 111.019 12.9338Z" fill="var(--fill-0, white)"/>
</g>
<path id="Vector_8" d="M77.5086 12.4037V8.80408H70.0445V3.05457H68.186L65.6122 7.39604C65.0709 8.30445 64.2268 8.99333 63.2238 9.33399L60.1806 10.3673V12.4075H64.7719V28.793C64.7719 30.7764 65.0671 32.2904 65.6576 33.3351C66.2481 34.3797 67.1792 35.0838 68.451 35.4471C69.7228 35.8143 71.5055 35.996 73.7993 35.996C74.9121 35.996 76.146 35.943 77.5048 35.8408V31.4577C76.1498 31.5637 74.984 31.6129 74.0074 31.6129C72.5123 31.6129 71.4752 31.3858 70.9037 30.9353C70.3284 30.4849 70.0407 29.5614 70.0407 28.1685V12.4075H77.5048L77.5086 12.4037Z" fill="var(--fill-0, white)"/>
</g>
</svg>
