<svg preserveAspectRatio="none" width="100%" height="100%" overflow="visible" style="display: block;" viewBox="0 0 56 56" fill="none" xmlns="http://www.w3.org/2000/svg">
<path id="Vector" d="M51.4049 0H4.59128C2.05529 0 0 2.05907 0 4.59507V51.4087C0 53.9447 2.05529 56 4.59128 56H51.4049C53.9409 56 56 53.9447 56 51.4087V4.59507C56 2.05907 53.9409 0 51.4049 0ZM44.3307 19.9397H32.6651V45.6062H23.3311V38.0853V29.0693C23.3311 28.4523 23.5772 27.8618 24.0124 27.4266L30.0875 21.3478C30.2427 21.1926 30.3297 20.9844 30.3297 20.7649C30.3297 20.5453 30.2389 20.3334 30.0875 20.182C29.9361 20.0306 29.7317 19.9397 29.5046 19.9397H11.6656V12.9411H44.3307V19.9397Z" fill="var(--fill-0, white)"/>
</svg>
