<svg preserveAspectRatio="none" width="100%" height="100%" overflow="visible" style="display: block;" viewBox="0 0 26.0512 8.26258" fill="none" xmlns="http://www.w3.org/2000/svg">
<g id="Group">
<path id="Vector" d="M5.16957 1.98865H6.3772V8.07352H5.16957V1.98865Z" fill="var(--fill-0, white)"/>
<path id="Vector_2" d="M12.1824 5.94545C12.1182 6.29529 11.9682 6.5861 11.7333 6.8179C11.4264 7.12069 11.0137 7.27208 10.4962 7.27208C9.93875 7.27208 9.49228 7.06167 9.15764 6.64084C8.823 6.22002 8.65569 5.65977 8.65569 4.9601C8.65569 4.29978 8.823 3.7729 9.15764 3.37944C9.49228 2.98598 9.93875 2.79011 10.4962 2.79011C11.0137 2.79011 11.4281 2.93552 11.7385 3.22633C11.9847 3.45728 12.1355 3.75322 12.1919 4.11674H13.4082C13.3527 3.71986 13.2253 3.36148 13.0233 3.04329C12.7727 2.64642 12.4277 2.34021 11.989 2.12295C11.5504 1.90655 11.0528 1.79878 10.4953 1.79878C9.88933 1.79878 9.3553 1.92879 8.89323 2.18796C8.43115 2.44712 8.07051 2.81919 7.8113 3.30246C7.55208 3.78573 7.42291 4.34597 7.42291 4.9832C7.42291 5.65977 7.55469 6.24311 7.81737 6.73407C8.08005 7.22589 8.44329 7.6031 8.90536 7.86654C9.36744 8.12998 9.89713 8.26171 10.4953 8.26171C11.0528 8.26171 11.5512 8.15564 11.989 7.94352C12.4268 7.7314 12.7736 7.42433 13.0285 7.02318C13.2296 6.70756 13.3562 6.34746 13.4082 5.94374H12.1806L12.1824 5.94545Z" fill="var(--fill-0, white)"/>
<path id="Vector_3" d="M3.96881 2.80294V1.98952H2.25922V0.69026H1.83356L1.24405 1.67133C1.12008 1.87661 0.926749 2.03228 0.697012 2.10926L8.87786e-08 2.34277V2.8038H1.05159V6.50655C1.05159 6.95475 1.11921 7.29689 1.25445 7.53296C1.38969 7.76903 1.60296 7.92812 1.89425 8.01024C2.18553 8.0932 2.59386 8.13426 3.11922 8.13426C3.3741 8.13426 3.65672 8.12229 3.96794 8.09919V7.10871C3.65758 7.13266 3.39057 7.14378 3.1669 7.14378C2.82446 7.14378 2.58692 7.09246 2.45602 6.99067C2.32424 6.88889 2.25836 6.68019 2.25836 6.36542V2.8038H3.96794L3.96881 2.80294Z" fill="var(--fill-0, white)"/>
<path id="Vector_4" d="M18.7191 6.71784C18.4243 6.2226 18.2769 5.65295 18.2769 5.00802C18.2769 4.3631 18.4243 3.81141 18.7191 3.32728C19.0138 2.84402 19.4126 2.46853 19.9146 2.20081C20.4165 1.93308 20.9583 1.79965 21.54 1.79965C22.1218 1.79965 22.6636 1.93308 23.1655 2.20081C23.6675 2.46853 24.0663 2.84316 24.361 3.32728C24.6558 3.81055 24.8032 4.3708 24.8032 5.00802C24.8032 5.64525 24.6558 6.2226 24.361 6.71784C24.0663 7.21308 23.6701 7.59456 23.1716 7.86143C22.674 8.12915 22.1296 8.26258 21.54 8.26258C20.9505 8.26258 20.4061 8.12915 19.9085 7.86143C19.4109 7.59371 19.0138 7.21308 18.7191 6.71784ZM23.5834 5.00802C23.5834 4.31605 23.3979 3.77377 23.0277 3.38032C22.6575 2.98686 22.1608 2.79099 21.54 2.79099C20.9193 2.79099 20.4338 2.98772 20.0637 3.38032C19.6935 3.77377 19.508 4.31605 19.508 5.00802C19.508 5.69999 19.6935 6.26964 20.0637 6.6708C20.4338 7.07195 20.9263 7.2721 21.54 7.2721C22.1538 7.2721 22.6575 7.07195 23.0277 6.6708C23.3979 6.26964 23.5834 5.71539 23.5834 5.00802Z" fill="var(--fill-0, white)"/>
<path id="Vector_5" d="M5.77347 1.3788C6.15937 1.3788 6.47221 1.07015 6.47221 0.689402C6.47221 0.308656 6.15937 3.79876e-09 5.77347 3.79876e-09C5.38756 3.79876e-09 5.07472 0.308656 5.07472 0.689402C5.07472 1.07015 5.38756 1.3788 5.77347 1.3788Z" fill="var(--fill-0, white)"/>
<g id="Group_2">
<path id="Vector_6" d="M25.5864 2.44459C25.569 2.4292 25.5413 2.4215 25.5023 2.41979V2.41466C25.5422 2.41209 25.5751 2.39841 25.5994 2.37446C25.6237 2.34965 25.6367 2.31886 25.6367 2.28208C25.6367 2.24102 25.6211 2.20852 25.5907 2.18457C25.5595 2.16062 25.517 2.1495 25.4633 2.1495H25.2058V2.67725H25.3055V2.47966H25.4338C25.4572 2.47966 25.4746 2.48137 25.4867 2.48565C25.4988 2.48907 25.5084 2.49591 25.5144 2.50618C25.5205 2.51644 25.5257 2.53098 25.5283 2.55066L25.55 2.6781H25.6505L25.6211 2.52158C25.615 2.48565 25.6029 2.45999 25.5855 2.44459H25.5864ZM25.4399 2.40696H25.3055V2.22991H25.4399C25.4702 2.22991 25.4945 2.2376 25.5118 2.253C25.53 2.2684 25.5387 2.28892 25.5387 2.31458C25.5387 2.34195 25.53 2.36419 25.511 2.3813C25.4928 2.39841 25.4685 2.4061 25.439 2.4061L25.4399 2.40696Z" fill="var(--fill-0, white)"/>
<path id="Vector_7" d="M25.4279 1.79797C25.0837 1.79797 24.8045 2.07424 24.8045 2.41295C24.8045 2.75167 25.0846 3.02794 25.4279 3.02794C25.7712 3.02794 26.0512 2.75167 26.0512 2.41295C26.0512 2.07424 25.7712 1.79797 25.4279 1.79797ZM25.4279 2.92273C25.1426 2.92273 24.9112 2.69436 24.9112 2.41295C24.9112 2.13155 25.1426 1.90317 25.4279 1.90317C25.7131 1.90317 25.9446 2.13155 25.9446 2.41295C25.9446 2.69436 25.7131 2.92273 25.4279 2.92273Z" fill="var(--fill-0, white)"/>
</g>
<path id="Vector_8" d="M17.7526 2.80295V1.98952H16.043V0.690263H15.6173L15.0278 1.67134C14.9038 1.87662 14.7105 2.03229 14.4808 2.10927L13.7838 2.34277V2.8038H14.8354V6.50656C14.8354 6.95475 14.903 7.29689 15.0382 7.53296C15.1735 7.76904 15.3867 7.92813 15.678 8.01024C15.9693 8.09321 16.3776 8.13426 16.903 8.13426C17.1579 8.13426 17.4405 8.12229 17.7517 8.0992V7.10871C17.4414 7.13266 17.1743 7.14378 16.9507 7.14378C16.6082 7.14378 16.3707 7.09246 16.2398 6.99068C16.108 6.88889 16.0421 6.68019 16.0421 6.36543V2.8038H17.7517L17.7526 2.80295Z" fill="var(--fill-0, white)"/>
</g>
</svg>
