<svg preserveAspectRatio="none" width="100%" height="100%" overflow="visible" style="display: block;" viewBox="0 0 12.8262 12.6547" fill="none" xmlns="http://www.w3.org/2000/svg">
<path id="Vector" d="M11.7738 0H1.05159C0.470744 0 0 0.465304 0 1.03838V11.6172C0 12.1903 0.470744 12.6547 1.05159 12.6547H11.7738C12.3546 12.6547 12.8262 12.1903 12.8262 11.6172V1.03838C12.8262 0.465304 12.3546 0 11.7738 0ZM10.1535 4.50592H7.48161V10.306H5.34376V8.6064V6.56899C5.34376 6.42957 5.40011 6.29614 5.49981 6.19777L6.89123 4.8241C6.92678 4.78903 6.94672 4.74199 6.94672 4.69238C6.94672 4.64277 6.92591 4.59487 6.89123 4.56066C6.85656 4.52645 6.80974 4.50592 6.75773 4.50592H2.67188V2.9244H10.1535V4.50592Z" fill="var(--fill-0, white)"/>
</svg>
