<svg xmlns="http://www.w3.org/2000/svg" width="24" height="7" viewBox="0 0 24 7" fill="none">
  <g clip-path="url(#clip0_1_299)">
    <path d="M12.3267 2.20685H12.9625V5.41088H12.3267V2.20685Z" fill="white"/>
    <path d="M16.0193 4.29033C15.9855 4.47454 15.9066 4.62767 15.7828 4.74972C15.6212 4.90916 15.404 4.98888 15.1314 4.98888C14.8379 4.98888 14.6028 4.87808 14.4266 4.65649C14.2504 4.43491 14.1623 4.1399 14.1623 3.77149C14.1623 3.42379 14.2504 3.14636 14.4266 2.93918C14.6028 2.73201 14.8379 2.62887 15.1314 2.62887C15.404 2.62887 15.6222 2.70543 15.7856 2.85856C15.9152 2.98017 15.9947 3.136 16.0243 3.32741H16.6648C16.6356 3.11843 16.5685 2.92972 16.4621 2.76218C16.3302 2.5532 16.1485 2.39197 15.9175 2.27757C15.6865 2.16362 15.4245 2.10687 15.131 2.10687C14.8119 2.10687 14.5307 2.17533 14.2874 2.3118C14.0441 2.44826 13.8542 2.64418 13.7177 2.89865C13.5812 3.15311 13.5132 3.44812 13.5132 3.78365C13.5132 4.1399 13.5826 4.44707 13.7209 4.70559C13.8592 4.96456 14.0505 5.16318 14.2938 5.30189C14.5371 5.44061 14.816 5.50997 15.131 5.50997C15.4245 5.50997 15.687 5.45412 15.9175 5.34243C16.148 5.23073 16.3306 5.06905 16.4648 4.85782C16.5707 4.69162 16.6374 4.50201 16.6648 4.28943H16.0184L16.0193 4.29033Z" fill="white"/>
    <path d="M11.6944 2.63564V2.20733H10.7942V1.52319H10.5701L10.2597 2.03978C10.1944 2.14788 10.0926 2.22985 9.97163 2.27038L9.60461 2.39333V2.63609H10.1583V4.5858C10.1583 4.8218 10.1939 5.00196 10.2652 5.12626C10.3364 5.25057 10.4487 5.33434 10.602 5.37758C10.7554 5.42126 10.9704 5.44288 11.2471 5.44288C11.3813 5.44288 11.5301 5.43658 11.694 5.42442V4.90287C11.5305 4.91548 11.3899 4.92134 11.2722 4.92134C11.0919 4.92134 10.9668 4.89432 10.8978 4.84072C10.8285 4.78712 10.7938 4.67723 10.7938 4.51149V2.63609H11.694L11.6944 2.63564Z" fill="white"/>
    <path d="M19.4612 4.69707C19.306 4.43629 19.2284 4.13634 19.2284 3.79675C19.2284 3.45716 19.306 3.16666 19.4612 2.91175C19.6164 2.65728 19.8264 2.45956 20.0907 2.31859C20.355 2.17762 20.6403 2.10736 20.9466 2.10736C21.2529 2.10736 21.5382 2.17762 21.8025 2.31859C22.0668 2.45956 22.2768 2.65683 22.432 2.91175C22.5872 3.16621 22.6648 3.46121 22.6648 3.79675C22.6648 4.13229 22.5872 4.43629 22.432 4.69707C22.2768 4.95784 22.0682 5.15871 21.8057 5.29923C21.5437 5.4402 21.257 5.51046 20.9466 5.51046C20.6362 5.51046 20.3495 5.4402 20.0875 5.29923C19.8255 5.15826 19.6164 4.95784 19.4612 4.69707ZM22.0226 3.79675C22.0226 3.43239 21.9249 3.14685 21.73 2.93967C21.535 2.73249 21.2735 2.62936 20.9466 2.62936C20.6198 2.62936 20.3641 2.73294 20.1692 2.93967C19.9743 3.14685 19.8766 3.43239 19.8766 3.79675C19.8766 4.16111 19.9743 4.46107 20.1692 4.6723C20.3641 4.88353 20.6234 4.98892 20.9466 4.98892C21.2698 4.98892 21.535 4.88353 21.73 4.6723C21.9249 4.46107 22.0226 4.16922 22.0226 3.79675Z" fill="white"/>
    <path d="M12.6447 1.88575C12.8479 1.88575 13.0126 1.72322 13.0126 1.52274C13.0126 1.32225 12.8479 1.15973 12.6447 1.15973C12.4415 1.15973 12.2767 1.32225 12.2767 1.52274C12.2767 1.72322 12.4415 1.88575 12.6447 1.88575Z" fill="white"/>
    <path d="M23.0774 2.44695C23.0682 2.43884 23.0536 2.43479 23.0331 2.43389V2.43118C23.0541 2.42983 23.0714 2.42263 23.0842 2.41002C23.097 2.39695 23.1038 2.38074 23.1038 2.36137C23.1038 2.33976 23.0956 2.32264 23.0796 2.31003C23.0632 2.29742 23.0408 2.29156 23.0125 2.29156H22.877V2.56945H22.9294V2.46541H22.997C23.0093 2.46541 23.0185 2.46631 23.0249 2.46857C23.0312 2.47037 23.0363 2.47397 23.0395 2.47937C23.0427 2.48478 23.0454 2.49244 23.0468 2.50279L23.0582 2.5699H23.1111L23.0956 2.48748C23.0924 2.46857 23.086 2.45505 23.0769 2.44695H23.0774ZM23.0002 2.42713H22.9294V2.3339H23.0002C23.0162 2.3339 23.029 2.33795 23.0381 2.34606C23.0477 2.35417 23.0522 2.36498 23.0522 2.37849C23.0522 2.3929 23.0477 2.40461 23.0376 2.41362C23.0281 2.42263 23.0153 2.42668 22.9997 2.42668L23.0002 2.42713Z" fill="white"/>
    <path d="M22.9939 2.10645C22.8126 2.10645 22.6656 2.25192 22.6656 2.43027C22.6656 2.60862 22.8131 2.7541 22.9939 2.7541C23.1746 2.7541 23.3221 2.60862 23.3221 2.43027C23.3221 2.25192 23.1746 2.10645 22.9939 2.10645ZM22.9939 2.6987C22.8437 2.6987 22.7218 2.57845 22.7218 2.43027C22.7218 2.28209 22.8437 2.16184 22.9939 2.16184C23.144 2.16184 23.2659 2.28209 23.2659 2.43027C23.2659 2.57845 23.144 2.6987 22.9939 2.6987Z" fill="white"/>
    <path d="M18.9524 2.63564V2.20733H18.0522V1.52319H17.828L17.5176 2.03978C17.4523 2.14788 17.3505 2.22985 17.2296 2.27038L16.8625 2.39333V2.63609H17.4163V4.5858C17.4163 4.8218 17.4519 5.00196 17.5231 5.12626C17.5943 5.25057 17.7066 5.33434 17.86 5.37758C18.0134 5.42126 18.2284 5.44288 18.505 5.44288C18.6392 5.44288 18.788 5.43658 18.9519 5.42442V4.90287C18.7885 4.91548 18.6479 4.92134 18.5301 4.92134C18.3498 4.92134 18.2247 4.89432 18.1558 4.84072C18.0864 4.78712 18.0517 4.67723 18.0517 4.51149V2.63609H18.9519L18.9524 2.63564Z" fill="white"/>
    <path d="M6.19981 0H0.553965C0.248117 0 0.000244141 0.245009 0.000244141 0.546766V6.11711C0.000244141 6.41887 0.248117 6.66343 0.553965 6.66343H6.19981C6.50566 6.66343 6.75399 6.41887 6.75399 6.11711V0.546766C6.75399 0.245009 6.50566 0 6.19981 0ZM5.34664 2.37262H3.93974V5.42667H2.81404V4.53176V3.45895C2.81404 3.38553 2.84371 3.31527 2.89621 3.26348L3.62887 2.54016C3.64759 2.5217 3.65809 2.49693 3.65809 2.4708C3.65809 2.44468 3.64713 2.41946 3.62887 2.40145C3.61061 2.38343 3.58596 2.37262 3.55857 2.37262H1.40714V1.53986H5.34664V2.37262Z" fill="white"/>
  </g>
  <defs>
    <clipPath id="clip0_1_299">
      <rect width="23.322" height="6.66343" fill="white"/>
    </clipPath>
  </defs>
</svg>
