<svg preserveAspectRatio="none" width="100%" height="100%" overflow="visible" style="display: block;" viewBox="0 0 104.513 28.3861" fill="none" xmlns="http://www.w3.org/2000/svg">
<g id="Group 3">
<path id="Vector" d="M16.1017 14.1905C16.1134 13.2848 16.3547 12.3967 16.803 11.609C17.2514 10.8212 17.8923 10.1594 18.666 9.68498C18.1745 8.98498 17.526 8.40878 16.7721 8.00238C16.0182 7.59598 15.1796 7.37038 14.323 7.34368C12.4958 7.15238 10.7243 8.43408 9.79311 8.43408C8.84401 8.43408 7.41031 7.36268 5.86651 7.39438C4.86801 7.42648 3.89481 7.71608 3.04181 8.23478C2.18881 8.75358 1.48511 9.48378 0.999305 10.3544C-1.10509 13.9878 0.464607 19.3277 2.48051 22.2647C3.48911 23.7028 4.66791 25.3092 6.21031 25.2523C7.71961 25.1899 8.28341 24.2925 10.1052 24.2925C11.9102 24.2925 12.4391 25.2523 14.0128 25.2161C15.6324 25.1899 16.6528 23.7715 17.626 22.3198C18.3507 21.295 18.9084 20.1625 19.2783 18.964C18.3374 18.5672 17.5344 17.9029 16.9695 17.054C16.4046 16.2051 16.1028 15.2092 16.1017 14.1905Z" fill="var(--fill-0, white)"/>
<path id="Vector_2" d="M13.1294 5.4127C14.0124 4.3556 14.4475 2.9969 14.3422 1.625C12.993 1.7663 11.7468 2.4093 10.8518 3.4259C10.4142 3.9225 10.0791 4.5002 9.86555 5.1261C9.65205 5.752 9.56425 6.4137 9.60735 7.0734C10.2821 7.0803 10.9497 6.9344 11.5598 6.6468C12.1698 6.3591 12.7065 5.9372 13.1294 5.4127Z" fill="var(--fill-0, white)"/>
<path id="Vector_3" d="M34.2106 21.7582H29.2575L28.0681 25.2606H25.9702L30.6616 12.3027H32.8413L37.5327 25.2606H35.3991L34.2106 21.7582ZM29.7705 20.142H33.6967L31.7612 14.4579H31.707L29.7705 20.142Z" fill="var(--fill-0, white)"/>
<path id="Vector_4" d="M47.6648 20.5376C47.6648 23.4734 46.089 25.3596 43.7111 25.3596C43.1088 25.391 42.5097 25.2526 41.9825 24.9603C41.4553 24.668 41.0214 24.2336 40.7303 23.7067H40.6853V28.3861H38.7407V15.8134H40.623V17.3847H40.6587C40.9632 16.8604 41.4045 16.4282 41.9357 16.1341C42.4669 15.84 43.0681 15.695 43.6753 15.7146C46.0798 15.7146 47.6648 17.6099 47.6648 20.5376ZM45.666 20.5376C45.666 18.6249 44.6748 17.3674 43.1624 17.3674C41.6766 17.3674 40.6772 18.6514 40.6772 20.5376C40.6772 22.4411 41.6766 23.7159 43.1624 23.7159C44.6748 23.7159 45.666 22.4676 45.666 20.5376Z" fill="var(--fill-0, white)"/>
<path id="Vector_5" d="M58.0926 20.5376C58.0926 23.4734 56.5164 25.3596 54.1385 25.3596C53.5361 25.391 52.937 25.2526 52.4099 24.9603C51.8827 24.668 51.4487 24.2336 51.1576 23.7067H51.1127V28.3861H49.168V15.8134H51.0503V17.3847H51.0861C51.3905 16.8604 51.8318 16.4282 52.363 16.1341C52.8942 15.84 53.4954 15.695 54.1027 15.7146C56.5072 15.7146 58.0926 17.6099 58.0926 20.5376ZM56.0933 20.5376C56.0933 18.6249 55.1021 17.3674 53.5897 17.3674C52.1039 17.3674 51.1045 18.6514 51.1045 20.5376C51.1045 22.4411 52.1039 23.7159 53.5897 23.7159C55.1021 23.7159 56.0933 22.4676 56.0933 20.5376Z" fill="var(--fill-0, white)"/>
<path id="Vector_6" d="M64.9829 21.6515C65.127 22.9365 66.3788 23.7802 68.0894 23.7802C69.7285 23.7802 70.9078 22.9364 70.9078 21.7778C70.9078 20.772 70.1965 20.1698 68.5125 19.7571L66.8284 19.3525C64.4423 18.7778 63.3346 17.665 63.3346 15.8593C63.3346 13.6236 65.2885 12.0879 68.0618 12.0879C70.8087 12.0879 72.691 13.6236 72.7543 15.8593H70.7913C70.6738 14.5662 69.6018 13.7856 68.0353 13.7856C66.4687 13.7856 65.3968 14.5754 65.3968 15.7248C65.3968 16.6409 66.0814 17.18 67.7563 17.5926L69.1879 17.9432C71.854 18.5719 72.9607 19.6399 72.9607 21.5352C72.9607 23.9595 71.0253 25.4778 67.9453 25.4778C65.0636 25.4778 63.1179 23.9951 62.9922 21.6514L64.9829 21.6515Z" fill="var(--fill-0, white)"/>
<path id="Vector_7" d="M77.1597 13.5781V15.8139H78.9617V17.3495H77.1597V22.5578C77.1597 23.3669 77.5207 23.7439 78.3127 23.7439C78.5267 23.7402 78.7397 23.7252 78.9527 23.699V25.2255C78.5967 25.2919 78.2347 25.3219 77.8717 25.3152C75.9537 25.3152 75.2057 24.5968 75.2057 22.7646V17.3495H73.8286V15.8139H75.2057V13.5781H77.1597Z" fill="var(--fill-0, white)"/>
<path id="Vector_8" d="M80.0034 20.5396C80.0034 17.5671 81.7584 15.6992 84.4964 15.6992C87.2434 15.6992 88.9904 17.5671 88.9904 20.5396C88.9904 23.5202 87.2524 25.3799 84.4964 25.3799C81.7414 25.3799 80.0034 23.5202 80.0034 20.5396ZM87.0094 20.5396C87.0094 18.5005 86.0724 17.2971 84.4964 17.2971C82.9204 17.2971 81.9834 18.5097 81.9834 20.5396C81.9834 22.5868 82.9204 23.7811 84.4964 23.7811C86.0724 23.7811 87.0094 22.5868 87.0094 20.5396Z" fill="var(--fill-0, white)"/>
<path id="Vector_9" d="M90.5938 15.8133H92.4488V17.4213H92.4938C92.6198 16.9191 92.9148 16.4753 93.3298 16.1644C93.7448 15.8536 94.2538 15.6947 94.7728 15.7145C94.9968 15.7137 95.2208 15.7379 95.4388 15.7868V17.6007C95.1558 17.5145 94.8608 17.4749 94.5658 17.4835C94.2828 17.4721 94.0008 17.5217 93.7398 17.6291C93.4778 17.7364 93.2428 17.899 93.0508 18.1054C92.8578 18.3119 92.7127 18.5575 92.6247 18.8254C92.5357 19.0932 92.5067 19.3769 92.5387 19.657V25.2606H90.5938V15.8133Z" fill="var(--fill-0, white)"/>
<path id="Vector_10" d="M104.405 22.488C104.143 24.203 102.468 25.3799 100.325 25.3799C97.5694 25.3799 95.8594 23.5386 95.8594 20.5844C95.8594 17.6211 97.5784 15.6992 100.243 15.6992C102.865 15.6992 104.513 17.4948 104.513 20.3592V21.0236H97.8224V21.1408C97.7914 21.4885 97.8344 21.8388 97.9504 22.1683C98.0654 22.4979 98.2494 22.7992 98.4904 23.0523C98.7314 23.3054 99.0244 23.5045 99.3484 23.6363C99.6724 23.7681 100.02 23.8296 100.37 23.8168C100.83 23.8597 101.291 23.7536 101.685 23.5141C102.079 23.2747 102.385 22.9148 102.558 22.488H104.405ZM97.8314 19.6683H102.567C102.585 19.3557 102.537 19.0429 102.428 18.7494C102.318 18.456 102.149 18.1883 101.931 17.9632C101.712 17.738 101.45 17.5603 101.16 17.4411C100.869 17.3219 100.557 17.2638 100.243 17.2706C99.9274 17.2687 99.6134 17.3294 99.3204 17.4491C99.0274 17.5688 98.7604 17.7452 98.5364 17.9682C98.3124 18.1911 98.1344 18.4561 98.0134 18.7479C97.8924 19.0397 97.8304 19.3525 97.8314 19.6683Z" fill="var(--fill-0, white)"/>
<path id="Vector_11" d="M27.7524 5.672V0.0719995H30.2884C31.2724 0.0719995 31.9284 0.528 31.9284 1.328C31.9284 2.016 31.3924 2.592 30.7444 2.64V2.688C31.4804 2.736 32.0804 3.296 32.0804 4.08C32.0804 5.032 31.3604 5.672 30.2884 5.672H27.7524ZM28.4244 5.064H30.1844C31.0004 5.064 31.4004 4.728 31.4004 4.08C31.4004 3.432 31.0004 3.128 30.1844 3.128H28.4244V5.064ZM28.4244 2.52H30.1044C30.8164 2.52 31.2404 2.088 31.2404 1.528C31.2404 1.016 30.8484 0.68 30.2564 0.68H28.4244V2.52ZM34.2011 5.8C33.3531 5.8 32.7771 5.36 32.7771 4.656C32.7771 3.888 33.3131 3.464 34.2731 3.464H34.7611C35.5051 3.464 35.9291 3.384 35.9291 2.824C35.9291 2.464 35.6491 1.976 34.7291 1.976C34.0411 1.976 33.5451 2.336 33.4491 2.968H32.7931C32.8811 2.016 33.6331 1.416 34.7371 1.416C35.8891 1.416 36.5691 1.944 36.5691 2.84V5.672H35.9611L35.9291 4.536H35.8971C35.7371 5.312 35.0811 5.8 34.2011 5.8ZM33.4571 4.568C33.4571 4.992 33.7211 5.256 34.3451 5.256C35.3211 5.256 35.9291 4.504 35.9291 3.84V3.376H35.8971C35.8411 3.736 35.4971 3.896 34.7611 3.896H34.2571C33.7451 3.896 33.4571 4.136 33.4571 4.568ZM37.8084 1.544H38.4484V5.672H37.8084V1.544ZM37.6964 0.432C37.6964 0.192 37.8884 0 38.1284 0C38.3684 0 38.5604 0.192 38.5604 0.432C38.5604 0.672 38.3684 0.864 38.1284 0.864C37.8884 0.864 37.6964 0.672 37.6964 0.432ZM39.2177 5.672L40.8017 3.56L39.3057 1.544H40.0577L40.4017 2.008C40.6657 2.376 40.9297 2.752 41.2017 3.144H41.2337C41.5057 2.752 41.7777 2.368 42.0497 1.992L42.3777 1.544H43.1297L41.5937 3.56L43.2177 5.672H42.4737L41.9857 5.024C41.7377 4.68 41.4897 4.336 41.2337 3.968H41.2017C40.9457 4.336 40.6897 4.688 40.4337 5.04L39.9617 5.672H39.2177ZM45.1073 5.8C44.2593 5.8 43.6833 5.36 43.6833 4.656C43.6833 3.888 44.2193 3.464 45.1793 3.464H45.6673C46.4113 3.464 46.8353 3.384 46.8353 2.824C46.8353 2.464 46.5553 1.976 45.6353 1.976C44.9473 1.976 44.4513 2.336 44.3553 2.968H43.6993C43.7873 2.016 44.5393 1.416 45.6433 1.416C46.7953 1.416 47.4753 1.944 47.4753 2.84V5.672H46.8673L46.8353 4.536H46.8033C46.6433 5.312 45.9873 5.8 45.1073 5.8ZM44.3633 4.568C44.3633 4.992 44.6273 5.256 45.2513 5.256C46.2273 5.256 46.8353 4.504 46.8353 3.84V3.376H46.8033C46.7473 3.736 46.4033 3.896 45.6673 3.896H45.1633C44.6513 3.896 44.3633 4.136 44.3633 4.568ZM48.6577 5.672V1.544H49.2737L49.2977 2.816H49.3297C49.5137 1.936 50.0257 1.48 51.0497 1.48V2.056C50.4737 2.08 50.0657 2.224 49.7857 2.504C49.4337 2.856 49.2977 3.424 49.2977 4.2V5.672H48.6577ZM53.6968 5.672V1.544H54.3048L54.3448 2.56H54.3928C54.6168 1.824 55.1368 1.416 55.8568 1.416C56.7528 1.416 57.3448 2.024 57.3448 2.928V5.672H56.7048V3.08C56.7048 2.384 56.3528 2.008 55.6168 2.008C54.8648 2.008 54.3448 2.624 54.3448 3.544V5.672H53.6968ZM59.7089 5.8C58.8609 5.8 58.2849 5.36 58.2849 4.656C58.2849 3.888 58.8209 3.464 59.7809 3.464H60.2689C61.0129 3.464 61.4369 3.384 61.4369 2.824C61.4369 2.464 61.1569 1.976 60.2369 1.976C59.5489 1.976 59.0529 2.336 58.9569 2.968H58.3009C58.3889 2.016 59.1409 1.416 60.2449 1.416C61.3969 1.416 62.0769 1.944 62.0769 2.84V5.672H61.4689L61.4369 4.536H61.4049C61.2449 5.312 60.5889 5.8 59.7089 5.8ZM58.9649 4.568C58.9649 4.992 59.2289 5.256 59.8529 5.256C60.8289 5.256 61.4369 4.504 61.4369 3.84V3.376H61.4049C61.3489 3.736 61.0049 3.896 60.2689 3.896H59.7649C59.2529 3.896 58.9649 4.136 58.9649 4.568Z" fill="var(--fill-0, white)"/>
</g>
</svg>
