<svg preserveAspectRatio="none" width="100%" height="100%" overflow="visible" style="display: block;" viewBox="0 0 120.891 29.4698" fill="none" xmlns="http://www.w3.org/2000/svg">
<g id="Group 4">
<path id="Vector" d="M33.5522 5.672V0.0719995H36.0882C37.0722 0.0719995 37.7282 0.528 37.7282 1.328C37.7282 2.016 37.1922 2.592 36.5442 2.64V2.688C37.2802 2.736 37.8802 3.296 37.8802 4.08C37.8802 5.032 37.1602 5.672 36.0882 5.672H33.5522ZM34.2242 5.064H35.9842C36.8002 5.064 37.2002 4.728 37.2002 4.08C37.2002 3.432 36.8002 3.128 35.9842 3.128H34.2242V5.064ZM34.2242 2.52H35.9042C36.6162 2.52 37.0402 2.088 37.0402 1.528C37.0402 1.016 36.6482 0.68 36.0562 0.68H34.2242V2.52ZM40.0009 5.8C39.1529 5.8 38.5769 5.36 38.5769 4.656C38.5769 3.888 39.1129 3.464 40.0729 3.464H40.5609C41.3049 3.464 41.7289 3.384 41.7289 2.824C41.7289 2.464 41.4489 1.976 40.5289 1.976C39.8409 1.976 39.3449 2.336 39.2489 2.968H38.5929C38.6809 2.016 39.4329 1.416 40.5369 1.416C41.6889 1.416 42.3689 1.944 42.3689 2.84V5.672H41.7609L41.7289 4.536H41.6969C41.5369 5.312 40.8809 5.8 40.0009 5.8ZM39.2569 4.568C39.2569 4.992 39.5209 5.256 40.1449 5.256C41.1209 5.256 41.7289 4.504 41.7289 3.84V3.376H41.6969C41.6409 3.736 41.2969 3.896 40.5609 3.896H40.0569C39.5449 3.896 39.2569 4.136 39.2569 4.568ZM43.6082 1.544H44.2482V5.672H43.6082V1.544ZM43.4962 0.432C43.4962 0.192 43.6882 0 43.9282 0C44.1682 0 44.3602 0.192 44.3602 0.432C44.3602 0.672 44.1682 0.864 43.9282 0.864C43.6882 0.864 43.4962 0.672 43.4962 0.432ZM45.0175 5.672L46.6015 3.56L45.1055 1.544H45.8575L46.2015 2.008C46.4655 2.376 46.7295 2.752 47.0015 3.144H47.0335C47.3055 2.752 47.5775 2.368 47.8495 1.992L48.1775 1.544H48.9295L47.3935 3.56L49.0175 5.672H48.2735L47.7855 5.024C47.5375 4.68 47.2895 4.336 47.0335 3.968H47.0015C46.7455 4.336 46.4895 4.688 46.2335 5.04L45.7615 5.672H45.0175ZM50.9071 5.8C50.0591 5.8 49.4831 5.36 49.4831 4.656C49.4831 3.888 50.0191 3.464 50.9791 3.464H51.4671C52.2111 3.464 52.6351 3.384 52.6351 2.824C52.6351 2.464 52.3551 1.976 51.4351 1.976C50.7471 1.976 50.2511 2.336 50.1551 2.968H49.4991C49.5871 2.016 50.3391 1.416 51.4431 1.416C52.5951 1.416 53.2751 1.944 53.2751 2.84V5.672H52.6671L52.6351 4.536H52.6031C52.4431 5.312 51.7871 5.8 50.9071 5.8ZM50.1631 4.568C50.1631 4.992 50.4271 5.256 51.0511 5.256C52.0271 5.256 52.6351 4.504 52.6351 3.84V3.376H52.6031C52.5471 3.736 52.2031 3.896 51.4671 3.896H50.9631C50.4511 3.896 50.1631 4.136 50.1631 4.568ZM54.4575 5.672V1.544H55.0735L55.0975 2.816H55.1295C55.3135 1.936 55.8255 1.48 56.8495 1.48V2.056C56.2735 2.08 55.8655 2.224 55.5855 2.504C55.2335 2.856 55.0975 3.424 55.0975 4.2V5.672H54.4575ZM59.4966 5.672V1.544H60.1046L60.1446 2.56H60.1926C60.4166 1.824 60.9366 1.416 61.6566 1.416C62.5526 1.416 63.1446 2.024 63.1446 2.928V5.672H62.5046V3.08C62.5046 2.384 62.1526 2.008 61.4166 2.008C60.6646 2.008 60.1446 2.624 60.1446 3.544V5.672H59.4966ZM65.5087 5.8C64.6607 5.8 64.0847 5.36 64.0847 4.656C64.0847 3.888 64.6207 3.464 65.5807 3.464H66.0687C66.8127 3.464 67.2367 3.384 67.2367 2.824C67.2367 2.464 66.9567 1.976 66.0367 1.976C65.3487 1.976 64.8527 2.336 64.7567 2.968H64.1007C64.1887 2.016 64.9407 1.416 66.0447 1.416C67.1967 1.416 67.8767 1.944 67.8767 2.84V5.672H67.2687L67.2367 4.536H67.2047C67.0447 5.312 66.3887 5.8 65.5087 5.8ZM64.7647 4.568C64.7647 4.992 65.0287 5.256 65.6527 5.256C66.6287 5.256 67.2367 4.504 67.2367 3.84V3.376H67.2047C67.1487 3.736 66.8047 3.896 66.0687 3.896H65.5647C65.0527 3.896 64.7647 4.136 64.7647 4.568Z" fill="var(--fill-0, white)"/>
<path id="Vector_2" d="M60.7035 16.6869C59.8244 16.689 58.9655 16.9517 58.2357 17.4419C57.5058 17.932 56.9377 18.6276 56.6032 19.4407C56.2686 20.2537 56.1827 21.1477 56.3562 22.0096C56.5298 22.8715 56.955 23.6625 57.5781 24.2827C58.2013 24.903 58.9943 25.3245 59.857 25.494C60.7197 25.6635 61.6133 25.5733 62.4247 25.235C63.2362 24.8966 63.9291 24.3252 64.4158 23.5931C64.9026 22.8609 65.1613 22.0009 65.1592 21.1217C65.1677 20.5352 65.0581 19.953 64.8369 19.4097C64.6158 18.8665 64.2875 18.3732 63.8718 17.9595C63.4561 17.5457 62.9613 17.2198 62.417 17.0011C61.8727 16.7825 61.29 16.6757 60.7035 16.6869ZM60.7035 23.8139C60.1647 23.8516 59.6269 23.7263 59.1602 23.4543C58.6935 23.1823 58.3194 22.7762 58.0865 22.2888C57.8537 21.8014 57.7728 21.2552 57.8545 20.7212C57.9362 20.1872 58.1766 19.6901 58.5446 19.2946C58.9125 18.8991 59.3909 18.6234 59.9176 18.5034C60.4443 18.3834 60.9949 18.4246 61.4978 18.6216C62.0008 18.8187 62.4328 19.1625 62.7378 19.6084C63.0428 20.0542 63.2066 20.5815 63.2079 21.1217C63.2247 21.464 63.1728 21.8062 63.0553 22.1281C62.9377 22.45 62.7569 22.7451 62.5235 22.996C62.2901 23.2469 62.0088 23.4485 61.6963 23.589C61.3837 23.7295 61.0461 23.8059 60.7035 23.8139ZM50.9783 16.6869C50.0992 16.689 49.2403 16.9517 48.5105 17.4419C47.7806 17.932 47.2125 18.6276 46.878 19.4407C46.5434 20.2537 46.4575 21.1477 46.631 22.0096C46.8046 22.8715 47.2298 23.6625 47.8529 24.2827C48.4761 24.903 49.2691 25.3245 50.1318 25.494C50.9945 25.6635 51.8881 25.5733 52.6995 25.235C53.511 24.8966 54.2039 24.3252 54.6906 23.5931C55.1774 22.8609 55.436 22.0009 55.434 21.1217C55.4425 20.5352 55.3329 19.953 55.1117 19.4097C54.8906 18.8665 54.5623 18.3732 54.1466 17.9595C53.7309 17.5457 53.2361 17.2198 52.6918 17.0011C52.1475 16.7825 51.5648 16.6757 50.9783 16.6869ZM50.9783 23.8139C50.4395 23.8516 49.9017 23.7263 49.435 23.4543C48.9683 23.1823 48.5942 22.7762 48.3613 22.2888C48.1285 21.8014 48.0476 21.2552 48.1293 20.7212C48.211 20.1872 48.4514 19.6901 48.8193 19.2946C49.1873 18.8991 49.6657 18.6234 50.1924 18.5034C50.719 18.3834 51.2697 18.4246 51.7726 18.6216C52.2756 18.8187 52.7076 19.1625 53.0126 19.6084C53.3176 20.0542 53.4814 20.5815 53.4827 21.1217C53.4995 21.464 53.4476 21.8062 53.3301 22.1281C53.2125 22.45 53.0317 22.7451 52.7983 22.996C52.5649 23.2469 52.2836 23.4485 51.971 23.589C51.6585 23.7295 51.3209 23.8059 50.9783 23.8139ZM39.4166 18.0539V19.9321H43.9244C43.8537 20.8168 43.486 21.6516 42.881 22.3008C42.4288 22.7616 41.8849 23.1222 41.2845 23.3595C40.6842 23.5967 40.0407 23.7053 39.3957 23.6782C38.0673 23.6782 36.7934 23.1505 35.8541 22.2112C34.9147 21.2719 34.387 19.9979 34.387 18.6695C34.387 17.3412 34.9147 16.0672 35.8541 15.1279C36.7934 14.1885 38.0673 13.6608 39.3957 13.6608C40.6692 13.6419 41.8989 14.1255 42.8183 15.0069L44.1436 13.6817C43.5216 13.0666 42.7832 12.5818 41.9715 12.2557C41.1598 11.9296 40.2912 11.7687 39.4166 11.7826C38.489 11.7465 37.5636 11.898 36.6959 12.2281C35.8282 12.5582 35.0361 13.0601 34.367 13.7036C33.6979 14.3472 33.1656 15.1192 32.802 15.9734C32.4384 16.8276 32.251 17.7464 32.251 18.6748C32.251 19.6031 32.4384 20.5219 32.802 21.3761C33.1656 22.2303 33.6979 23.0023 34.367 23.6459C35.0361 24.2894 35.8282 24.7913 36.6959 25.1214C37.5636 25.4515 38.489 25.603 39.4166 25.5669C40.3092 25.6026 41.1993 25.449 42.0283 25.1163C42.8574 24.7836 43.6067 24.2793 44.227 23.6365C45.3228 22.4327 45.9067 20.8496 45.8549 19.2226C45.8586 18.831 45.8272 18.4399 45.7609 18.0539H39.4166ZM86.6963 19.5148C86.4243 18.7141 85.9153 18.0151 85.2373 17.5101C84.5593 17.0051 83.7433 16.7181 82.8983 16.6869C82.3273 16.6858 81.7623 16.8018 81.2383 17.0277C80.7143 17.2535 80.2423 17.5845 79.8503 18.0002C79.4593 18.4158 79.1573 18.9073 78.9643 19.4442C78.7703 19.9811 78.6883 20.552 78.7243 21.1217C78.7153 22.0743 79.0153 23.0041 79.5783 23.7724C80.1413 24.5407 80.9383 25.1062 81.8493 25.3845C82.7603 25.6627 83.7363 25.6388 84.6323 25.3162C85.5293 24.9936 86.2973 24.3897 86.8213 23.5948L85.3083 22.5513C85.0833 22.9272 84.7633 23.2377 84.3803 23.4518C83.9983 23.666 83.5663 23.7764 83.1283 23.7721C82.6753 23.7908 82.2283 23.6722 81.8443 23.432C81.4613 23.1918 81.1593 22.8411 80.9783 22.4261L86.9153 19.9739L86.6963 19.5148ZM80.6443 20.9965C80.6233 20.6724 80.6673 20.3473 80.7733 20.0403C80.8793 19.7333 81.0453 19.4505 81.2623 19.2085C81.4783 18.9666 81.7413 18.7703 82.0353 18.6311C82.3283 18.492 82.6473 18.4128 82.9713 18.3982C83.3073 18.3777 83.6423 18.4569 83.9333 18.6258C84.2253 18.7947 84.4603 19.0459 84.6093 19.3478L80.6443 20.9965ZM75.8235 25.2956H77.7748V12.2522H75.8235V25.2956ZM72.6305 17.6782H72.5575C72.266 17.3463 71.9062 17.0812 71.5028 16.9011C71.0994 16.721 70.6618 16.6301 70.2201 16.6348C69.0797 16.6901 68.0044 17.182 67.2169 18.0086C66.4294 18.8352 65.9902 19.9331 65.9902 21.0748C65.9902 22.2164 66.4294 23.3143 67.2169 24.1409C68.0044 24.9675 69.0797 25.4595 70.2201 25.5148C70.6625 25.5236 71.1014 25.4347 71.5054 25.2543C71.9095 25.0739 72.2687 24.8066 72.5575 24.4713H72.6305V25.1078C72.6305 26.8087 71.7227 27.7165 70.2618 27.7165C69.7738 27.7058 69.3 27.5503 68.9005 27.2697C68.5011 26.9892 68.194 26.5963 68.0183 26.1408L66.3279 26.84C66.6404 27.6249 67.1838 28.2966 67.8862 28.7661C68.5886 29.2356 69.417 29.4809 70.2618 29.4695C72.547 29.4695 74.4357 28.1234 74.4357 24.8469V16.9478H72.6305V17.6782ZM70.387 23.8139C69.7033 23.7713 69.0616 23.4696 68.5926 22.9704C68.1235 22.4712 67.8624 21.8119 67.8624 21.1269C67.8624 20.4419 68.1235 19.7827 68.5926 19.2835C69.0616 18.7842 69.7033 18.4826 70.387 18.44C70.7212 18.4544 71.049 18.5359 71.3511 18.6796C71.6531 18.8233 71.9231 19.0263 72.1451 19.2765C72.367 19.5267 72.5364 19.819 72.6431 20.136C72.7498 20.453 72.7916 20.7882 72.7661 21.1217C72.7946 21.4563 72.7549 21.7933 72.6495 22.1121C72.544 22.431 72.3749 22.7251 72.1526 22.9768C71.9302 23.2284 71.659 23.4324 71.3556 23.5763C71.0521 23.7201 70.7226 23.801 70.387 23.8139ZM95.8373 12.2522H91.1623V25.2956H93.1143V20.3495H95.8373C96.3933 20.3895 96.9523 20.3144 97.4773 20.1291C98.0033 19.9437 98.4853 19.652 98.8933 19.2721C99.3023 18.8923 99.6273 18.4324 99.8503 17.9212C100.072 17.41 100.187 16.8584 100.187 16.3008C100.187 15.7433 100.072 15.1917 99.8503 14.6805C99.6273 14.1693 99.3023 13.7094 98.8933 13.3296C98.4853 12.9497 98.0033 12.658 97.4773 12.4726C96.9523 12.2872 96.3933 12.2122 95.8373 12.2522ZM95.8373 18.513H93.1143V14.0678H95.8793C96.1723 14.0678 96.4633 14.1256 96.7333 14.2378C97.0043 14.35 97.2513 14.5145 97.4583 14.7218C97.6653 14.9292 97.8303 15.1754 97.9423 15.4463C98.0543 15.7172 98.1123 16.0076 98.1123 16.3008C98.1123 16.5941 98.0543 16.8845 97.9423 17.1554C97.8303 17.4263 97.6653 17.6725 97.4583 17.8798C97.2513 18.0872 97.0043 18.2517 96.7333 18.3639C96.4633 18.4761 96.1723 18.5339 95.8793 18.5339L95.8373 18.513ZM107.879 16.6452C107.168 16.6014 106.46 16.7668 105.843 17.121C105.225 17.4753 104.725 18.0027 104.404 18.6382L106.126 19.3582C106.3 19.0446 106.561 18.788 106.878 18.6195C107.194 18.451 107.553 18.3778 107.91 18.4087C108.158 18.3797 108.409 18.4004 108.649 18.4695C108.888 18.5386 109.112 18.6548 109.306 18.8111C109.5 18.9675 109.661 19.161 109.78 19.3804C109.899 19.5997 109.972 19.8405 109.997 20.0887V20.2139C109.37 19.8841 108.671 19.7121 107.962 19.713C106.105 19.713 104.206 20.7565 104.206 22.6556C104.224 23.0593 104.324 23.4551 104.498 23.8197C104.672 24.1842 104.918 24.51 105.221 24.7777C105.523 25.0453 105.877 25.2494 106.26 25.3778C106.643 25.5063 107.048 25.5564 107.451 25.5252C107.941 25.5523 108.429 25.4486 108.865 25.2249C109.302 25.0012 109.671 24.6655 109.935 24.2521H109.997V25.2956H111.875V20.2765C111.875 17.9913 110.143 16.6661 107.921 16.6661L107.879 16.6452ZM107.639 23.793C107.002 23.793 106.115 23.4695 106.115 22.6869C106.115 21.6435 107.221 21.2887 108.202 21.2887C108.822 21.2734 109.435 21.4247 109.976 21.7269C109.911 22.2936 109.642 22.8173 109.22 23.2011C108.798 23.5848 108.251 23.8025 107.681 23.8139L107.639 23.793ZM118.721 16.9478L116.488 22.6034H116.425L114.108 16.9478H112.021L115.496 24.8574L113.514 29.2504H115.548L120.891 16.9478H118.721ZM101.19 25.2956H103.131V12.2522H101.19V25.2956Z" fill="var(--fill-0, white)"/>
<path id="Vector_3" d="M0.494886 1.86021C0.151086 2.26671 -0.0244144 2.78941 0.00448556 3.32101V26.4028C-0.0310144 26.9353 0.145286 27.4604 0.494886 27.8636L0.567985 27.9471L13.4967 15.0184V14.7054L0.567985 1.78711L0.494886 1.86021Z" fill="url(#paint0_linear_2001_203)"/>
<path id="Vector_4" d="M17.7749 19.3266L13.4966 15.0171V14.704L17.7749 10.3945L17.8688 10.4571L22.9922 13.3579C24.4531 14.1823 24.4531 15.5388 22.9922 16.3736L17.8896 19.2745L17.7749 19.3266Z" fill="url(#paint1_linear_2001_203)"/>
<path id="Vector_5" d="M17.8998 19.2647L13.4964 14.8613L0.494629 27.863C0.789529 28.1254 1.16693 28.2764 1.56143 28.2898C1.95603 28.3031 2.34273 28.178 2.65463 27.936L17.8998 19.2647Z" fill="url(#paint2_linear_2001_203)"/>
<path id="Vector_6" d="M17.8998 10.4572L2.65463 1.79639C2.34483 1.55109 1.95833 1.42289 1.56323 1.43429C1.16823 1.44579 0.789829 1.59609 0.494629 1.85899L13.4964 14.8607L17.8998 10.4572Z" fill="url(#paint3_linear_2001_203)"/>
<path id="Vector_7" opacity="0.2" d="M17.7746 19.1699L2.65463 27.7786C2.35413 28.0055 1.98773 28.1282 1.61123 28.1282C1.23463 28.1282 0.868328 28.0055 0.567728 27.7786L0.494629 27.8517L0.567728 27.9352C0.868328 28.162 1.23463 28.2847 1.61123 28.2847C1.98773 28.2847 2.35413 28.162 2.65463 27.9352L17.8998 19.2639L17.7746 19.1699Z" fill="var(--fill-0, white)"/>
<path id="Vector_8" opacity="0.12" d="M0.494971 27.7174C0.159771 27.3035 -0.00452884 26.7772 0.0357712 26.2461V26.4026C0.000271157 26.9352 0.176571 27.4603 0.526271 27.8635L0.599271 27.7905L0.494971 27.7174Z" fill="var(--fill-0, white)"/>
<path id="Vector_9" opacity="0.12" d="M22.9923 16.2178L17.7749 19.1708L17.8688 19.2647L22.9923 16.3639C23.2947 16.236 23.5571 16.0289 23.7517 15.7645C23.9464 15.5001 24.0661 15.188 24.0984 14.8613C24.0332 15.1582 23.8991 15.4357 23.7069 15.6713C23.5148 15.9069 23.27 16.0941 22.9923 16.2178Z" fill="var(--fill-0, white)"/>
</g>
<defs>
<linearGradient id="paint0_linear_2001_203" x1="12.3488" y1="3.08101" x2="-5.16071" y2="20.5906" gradientUnits="userSpaceOnUse">
<stop stop-color="#00A0FF"/>
<stop offset="0.01" stop-color="#00A1FF"/>
<stop offset="0.26" stop-color="#00BEFF"/>
<stop offset="0.51" stop-color="#00D2FF"/>
<stop offset="0.76" stop-color="#00DFFF"/>
<stop offset="1" stop-color="#00E3FF"/>
</linearGradient>
<linearGradient id="paint1_linear_2001_203" x1="24.9018" y1="14.8605" x2="-0.339915" y2="14.8605" gradientUnits="userSpaceOnUse">
<stop stop-color="#FFE000"/>
<stop offset="0.41" stop-color="#FFBD00"/>
<stop offset="0.78" stop-color="#FFA500"/>
<stop offset="1" stop-color="#FF9C00"/>
</linearGradient>
<linearGradient id="paint2_linear_2001_203" x1="15.5103" y1="17.2613" x2="-8.23927" y2="41.0004" gradientUnits="userSpaceOnUse">
<stop stop-color="#FF3A44"/>
<stop offset="1" stop-color="#C31162"/>
</linearGradient>
<linearGradient id="paint3_linear_2001_203" x1="-2.78187" y1="-5.82102" x2="7.81993" y2="4.78069" gradientUnits="userSpaceOnUse">
<stop stop-color="#32A071"/>
<stop offset="0.07" stop-color="#2DA771"/>
<stop offset="0.48" stop-color="#15CF74"/>
<stop offset="0.8" stop-color="#06E775"/>
<stop offset="1" stop-color="#00F076"/>
</linearGradient>
</defs>
</svg>
